<?xml version="1.0" encoding="utf-8"?>
<!-- Generator: Adobe Illustrator 25.0.0, SVG Export Plug-In . SVG Version: 6.00 Build 0)  -->
<svg version="1.1" id="Layer_1" xmlns="http://www.w3.org/2000/svg" xmlns:xlink="http://www.w3.org/1999/xlink" x="0px" y="0px"
	 viewBox="0 0 1080 1080" style="enable-background:new 0 0 1080 1080;" xml:space="preserve">
<style type="text/css">
	.st0{display:none;fill:#FF4417;}
	.st1{display:none;}
	.st2{display:inline;fill:none;}
	.st3{display:inline;}
	.st4{fill:#020202;}
</style>
<rect class="st0" width="1080" height="1080"/>
<g class="st1">
	<path class="st2" d="M539.97,234.35c-4.85,0-8.78,3.93-8.78,8.78v268.58c0,4.85,3.93,8.78,8.78,8.78c4.85,0,8.78-3.93,8.78-8.78
		V243.13C548.75,238.28,544.82,234.35,539.97,234.35z"/>
	<path d="M656.68,528.4c0.44-4.56,4.53-7.91,9.11-7.91h34.71c10.8,0,19.56-8.76,19.56-19.56v-176.5
		c0-59.73-48.42-108.16-108.16-108.16l-243.71,0v648.42H531.2V547.71c0-4.58,3.35-8.68,7.91-9.11c5.23-0.5,9.64,3.6,9.64,8.73
		v317.28l171.31,0.07v-307.1c0-10.8-8.76-19.56-19.56-19.56h-35.09C660.29,538.04,656.18,533.63,656.68,528.4z M548.75,511.71
		c0,5.13-4.4,9.23-9.64,8.73c-4.56-0.44-7.91-4.53-7.91-9.11V243.5c0-4.58,3.35-8.68,7.91-9.11c5.23-0.5,9.64,3.6,9.64,8.73V511.71z
		"/>
	<path class="st3" d="M656.82,527.49c0.81-4.17,4.73-7.01,8.98-7.01h0c29.97,0,54.27-24.3,54.27-54.27V324.43
		c0-59.73-48.4-109.13-108.14-109.13H359.93v649.39l171.26,0V547.71c0-4.58,3.35-8.68,7.91-9.11c5.23-0.5,9.64,3.6,9.64,8.73v317.28
		l171.31,0.07V592.31c0-29.97-24.3-54.27-54.27-54.27h-0.38C659.99,538.04,655.72,533.11,656.82,527.49z M548.75,511.71
		c0,5.13-4.4,9.23-9.64,8.73c-4.56-0.44-7.91-4.53-7.91-9.11V243.5c0-4.58,3.35-8.68,7.91-9.11c5.23-0.5,9.64,3.6,9.64,8.73V511.71z
		"/>
</g>
<path class="st4" d="M383.88,718.01c0,0,320.76-138.14,396.82-220.55c37.72-40.87,87.74-112.95,44.33-200.49
	c-31.75-64.03-102.38-74.22-102.38-74.22C509.6,175.3,246.78,368.72,246.78,595.74l214.12-0.26l0,0
	c2.98-269.34,174.55-402.29,289.87-328.96c59.49,37.83,102.17,190.36-479.89,450.15L238.16,863.8l148.87,0.67h369.3l85.5-370.34
	l-9.21,0.43C832.63,494.56,623.6,688.41,383.88,718.01z"/>
<path class="st1" d="M581.47,435.92c-100.19,0.06-158.46,64.54-158.46,64.54l28.95-171.98l321.58-0.65l8.04-112.31l-427.9,0.67
	l-54.61,383.26l120.74-0.38c0,0,31.39-77.5,128.99-76.99c96.69,0.16,135.73,51.81,135.92,119.67
	c0.17,60.66-65.19,117.58-145.1,117.36c-76.55-0.21-152.42-58.96-167.47-84.96l-98.89,68.96c0,0,95.96,121.37,266.35,121.37
	c172.41,0,266.36-108.49,266.36-218.77C805.99,561.82,748.76,435.83,581.47,435.92z"/>
</svg>
