<?xml version="1.0" encoding="utf-8"?>
<!-- Generator: Adobe Illustrator 25.0.0, SVG Export Plug-In . SVG Version: 6.00 Build 0)  -->
<svg version="1.1" id="Layer_1" xmlns="http://www.w3.org/2000/svg" xmlns:xlink="http://www.w3.org/1999/xlink" x="0px" y="0px"
	 viewBox="0 0 1152 979" style="enable-background:new 0 0 1152 979;" xml:space="preserve">
<path d="M912.2,474l-327.7-0.2v132.8l162.6,1c-25.2,17.4-137.3,23.8-178,23.2c-110.9-1.7-183.1-34.6-183.2-105.8
	c-0.2-23.1,0.1-56.9,0.1-85.1c0-53.1,43.2-99.4,99.4-99.4c57,0,99.3,46.3,99.4,99.4c0,4.5,0,9.2,0,13.8l327.4-0.8
	c-14.9-153.1-200.9-201.7-331-201.7c-188.6,0-341.4,64.6-341.4,238.4c0,177.8,156.5,238.4,325.9,238.4
	c142.3,0,181.4-40.4,181.4-40.4v40.4h164.5v0v-62.9L912.2,474z"/>
</svg>
