<?xml version="1.0" encoding="utf-8"?>
<!-- Generator: Adobe Illustrator 25.0.0, SVG Export Plug-In . SVG Version: 6.00 Build 0)  -->
<svg version="1.1" id="Layer_1" xmlns="http://www.w3.org/2000/svg" xmlns:xlink="http://www.w3.org/1999/xlink" x="0px" y="0px"
	 viewBox="0 0 1080 1080" style="enable-background:new 0 0 1080 1080;" xml:space="preserve">
<style type="text/css">
	.st0{display:none;fill:#FF4417;}
	.st1{display:none;}
	.st2{display:inline;fill:none;}
	.st3{display:inline;}
	.st4{display:none;fill:#020202;}
</style>
<rect class="st0" width="1080" height="1080"/>
<g class="st1">
	<path class="st2" d="M540,234.4c-4.8,0-8.8,3.9-8.8,8.8v268.6c0,4.9,3.9,8.8,8.8,8.8c4.8,0,8.8-3.9,8.8-8.8V243.1
		C548.8,238.3,544.8,234.4,540,234.4z"/>
	<path class="st3" d="M656.7,528.4c0.4-4.6,4.5-7.9,9.1-7.9h34.7c10.8,0,19.6-8.8,19.6-19.6V324.4c0-59.7-48.4-108.2-108.2-108.2
		H368.2v648.4h163v-317c0-4.6,3.3-8.7,7.9-9.1c5.2-0.5,9.6,3.6,9.6,8.7v317.3l171.3,0.1V557.6c0-10.8-8.8-19.6-19.6-19.6h-35.1
		C660.3,538,656.2,533.6,656.7,528.4z M548.8,511.7c0,5.1-4.4,9.2-9.6,8.7c-4.6-0.4-7.9-4.5-7.9-9.1V243.5c0-4.6,3.3-8.7,7.9-9.1
		c5.2-0.5,9.6,3.6,9.6,8.7V511.7z"/>
	<path class="st3" d="M656.8,527.5c0.8-4.2,4.7-7,9-7l0,0c30,0,54.3-24.3,54.3-54.3V324.4c0-59.7-48.4-109.1-108.1-109.1h-252v649.4
		h171.3v-317c0-4.6,3.3-8.7,7.9-9.1c5.2-0.5,9.6,3.6,9.6,8.7v317.3l171.3,0.1V592.3c0-30-24.3-54.3-54.3-54.3h-0.4
		C660,538,655.7,533.1,656.8,527.5z M548.8,511.7c0,5.1-4.4,9.2-9.6,8.7c-4.6-0.4-7.9-4.5-7.9-9.1V243.5c0-4.6,3.3-8.7,7.9-9.1
		c5.2-0.5,9.6,3.6,9.6,8.7V511.7z"/>
</g>
<path class="st4" d="M383.9,718c0,0,320.8-138.1,396.8-220.5c37.7-40.9,87.7-113,44.3-200.5c-31.8-64-102.4-74.2-102.4-74.2
	c-213.1-47.5-475.9,146-475.9,373l214.1-0.3l0,0c3-269.3,174.6-402.3,289.9-329c59.5,37.8,102.2,190.4-479.9,450.1l-32.7,147.1
	l148.9,0.7h369.3l85.5-370.3l-9.2,0.4C832.6,494.6,623.6,688.4,383.9,718z"/>
<path d="M625.3,597.1l-18.9,65.4l57.8,0.3c-10.3,13.8-26.3,46.3-30.8,65.8c-84-29.7-155-15.2-197,0.1c-18.5-42.4-47.6-78.8-81-103
	c21.8-67.3,10.1-125-1.4-158.5c47.6-33.8,78.2-69.3,90.5-130c73.4,22,114.7,23,198.7-3.2c25.9,93,94.9,131.1,96.6,133.2l51.4-40.4
	c-0.4-0.5-101.2-60.9-100.3-174.5l0,0l0,0c-1.3,0.4-159.1,78-296.6,0l0,0l0,0c-0.2,1.1-13.7,146.7-129.1,184.8l0,0l18.9,32.4
	c1.7,3,40.9,74.2-1.1,161.6l-17.8,44l0,0c5.3,0.9,121.6,38.7,123.6,152.5l0,0l0,0c3.8-2.4,143.1-98.8,301.3,0l0,0l0,0
	c0-0.7,0-120.4,56.1-150.3v150.3l68.7-14.9v-216L625.3,597.1z"/>
</svg>
