<?xml version="1.0" encoding="utf-8"?>
<!-- Generator: Adobe Illustrator 25.0.0, SVG Export Plug-In . SVG Version: 6.00 Build 0)  -->
<svg version="1.1" id="Layer_1" xmlns="http://www.w3.org/2000/svg" xmlns:xlink="http://www.w3.org/1999/xlink" x="0px" y="0px"
	 viewBox="0 0 1080 1080" style="enable-background:new 0 0 1080 1080;" xml:space="preserve">
<style type="text/css">
	.st0{display:none;fill:#FF4417;}
	.st1{display:none;}
	.st2{display:inline;fill:none;}
	.st3{display:inline;}
	.st4{display:none;fill:#020202;}
</style>
<rect class="st0" width="1080" height="1080"/>
<g class="st1">
	<path class="st2" d="M540,234.4c-4.8,0-8.8,3.9-8.8,8.8v268.6c0,4.9,3.9,8.8,8.8,8.8c4.8,0,8.8-3.9,8.8-8.8V243.1
		C548.8,238.3,544.8,234.4,540,234.4z"/>
	<path class="st3" d="M656.7,528.4c0.4-4.6,4.5-7.9,9.1-7.9h34.7c10.8,0,19.6-8.8,19.6-19.6V324.4c0-59.7-48.4-108.2-108.2-108.2
		H368.2v648.4h163v-317c0-4.6,3.3-8.7,7.9-9.1c5.2-0.5,9.6,3.6,9.6,8.7v317.3l171.3,0.1V557.6c0-10.8-8.8-19.6-19.6-19.6h-35.1
		C660.3,538,656.2,533.6,656.7,528.4z M548.8,511.7c0,5.1-4.4,9.2-9.6,8.7c-4.6-0.4-7.9-4.5-7.9-9.1V243.5c0-4.6,3.3-8.7,7.9-9.1
		c5.2-0.5,9.6,3.6,9.6,8.7V511.7z"/>
	<path class="st3" d="M656.8,527.5c0.8-4.2,4.7-7,9-7l0,0c30,0,54.3-24.3,54.3-54.3V324.4c0-59.7-48.4-109.1-108.1-109.1h-252v649.4
		h171.3v-317c0-4.6,3.3-8.7,7.9-9.1c5.2-0.5,9.6,3.6,9.6,8.7v317.3l171.3,0.1V592.3c0-30-24.3-54.3-54.3-54.3h-0.4
		C660,538,655.7,533.1,656.8,527.5z M548.8,511.7c0,5.1-4.4,9.2-9.6,8.7c-4.6-0.4-7.9-4.5-7.9-9.1V243.5c0-4.6,3.3-8.7,7.9-9.1
		c5.2-0.5,9.6,3.6,9.6,8.7V511.7z"/>
</g>
<path class="st4" d="M383.9,718c0,0,320.8-138.1,396.8-220.5c37.7-40.9,87.7-113,44.3-200.5c-31.8-64-102.4-74.2-102.4-74.2
	c-213.1-47.5-475.9,146-475.9,373l214.1-0.3l0,0c3-269.3,174.6-402.3,289.9-329c59.5,37.8,102.2,190.4-479.9,450.1l-32.7,147.1
	l148.9,0.7h369.3l85.5-370.3l-9.2,0.4C832.6,494.6,623.6,688.4,383.9,718z"/>
<g>
	<path d="M427.8,438.8H237.7c-33.6,0-60.8-27.2-60.8-60.8v0c0-33.6,27.2-60.8,60.8-60.8h190.1c33.6,0,60.8,27.2,60.8,60.8v0
		C488.6,411.6,461.4,438.8,427.8,438.8z"/>
	<path d="M427.8,751.3H237.7c-33.6,0-60.8-27.2-60.8-60.8v0c0-33.6,27.2-60.8,60.8-60.8h190.1c33.6,0,60.8,27.2,60.8,60.8v0
		C488.6,724.1,461.4,751.3,427.8,751.3z"/>
	<path d="M842.3,438.8H652.2c-33.6,0-60.8-27.2-60.8-60.8v0c0-33.6,27.2-60.8,60.8-60.8h190.1c33.6,0,60.8,27.2,60.8,60.8v0
		C903.1,411.6,875.8,438.8,842.3,438.8z"/>
	<path d="M842.3,762.7H652.2c-33.6,0-60.8-27.2-60.8-60.8v0c0-33.6,27.2-60.8,60.8-60.8h190.1c33.6,0,60.8,27.2,60.8,60.8v0
		C903.1,735.5,875.8,762.7,842.3,762.7z"/>
	<rect x="322.5" y="378" width="20.6" height="294.5"/>
	<rect x="529.7" y="323.5" transform="matrix(3.229334e-11 -1 1 3.229334e-11 4.1314 1075.8685)" width="20.6" height="424.8"/>
	<rect x="737" y="378" width="20.6" height="294.5"/>
</g>
</svg>
