<?xml version="1.0" encoding="utf-8"?>
<!-- Generator: Adobe Illustrator 25.0.0, SVG Export Plug-In . SVG Version: 6.00 Build 0)  -->
<svg version="1.1" id="Layer_1" xmlns="http://www.w3.org/2000/svg" xmlns:xlink="http://www.w3.org/1999/xlink" x="0px" y="0px"
	 viewBox="0 0 1152 979" style="enable-background:new 0 0 1152 979;" xml:space="preserve">
<g>
	<g id="Z_1_">
		<g>
			<path d="M464.9,337.1h17.4c23.3,0,42.2-18.9,42.2-42.2v-17.5c0-23.3-18.9-42.2-42.2-42.2h-17.5c-23.3,0-42.2,18.9-42.2,42.2V295
				c0,23.3-18.9,42.2-42.2,42.2h-17.4c-23.3,0-42.2,18.9-42.2,42.2v17.5c0,23.3,18.9,42.2,42.2,42.2h17.5
				c23.3,0,42.2-18.9,42.2-42.2v-17.5C422.7,356,441.6,337.1,464.9,337.1z"/>
		</g>
		<g>
			<path d="M677.6,642.4h-17.4c-23.3,0-42.2-18.9-42.2-42.2v-17.5c0-23.3,18.9-42.2,42.2-42.2h17.5c23.3,0,42.2,18.9,42.2,42.2v17.5
				c0,23.3,18.9,42.2,42.2,42.2h17.4c23.3,0,42.2,18.9,42.2,42.2V702c0,23.3-18.9,42.2-42.2,42.2h-17.5c-23.3,0-42.2-18.9-42.2-42.2
				v-17.5C719.7,661.3,700.8,642.4,677.6,642.4z"/>
		</g>
		<g>
			<path d="M380.5,642.7h-17.4c-23.3,0-42.2-18.9-42.2-42.2v-17.5c0-23.3,18.9-42.2,42.2-42.2h17.5c23.3,0,42.2,18.9,42.2,42.2v17.5
				c0,23.3,18.9,42.2,42.2,42.2h17.4c23.3,0,42.2,18.9,42.2,42.2v17.5c0,23.3-18.9,42.2-42.2,42.2h-17.5
				c-23.3,0-42.2-18.9-42.2-42.2v-17.5C422.7,661.6,403.8,642.7,380.5,642.7z"/>
		</g>
		<path d="M363.1,540.7h17.5c23.3,0,42.2-18.9,42.2-42.2v-59.6v-59.6c0-23.3-18.9-42.2-42.2-42.2h-17.5c-23.3,0-42.2,18.9-42.2,42.2
			v59.6v59.6C320.9,521.8,339.8,540.7,363.1,540.7z"/>
		<path d="M770.9,540.7h17.5c23.3,0,42.2-18.9,42.2-42.2v-59.6v-59.6c0-23.3-18.9-42.2-42.2-42.2h-17.5c-23.3,0-42.2,18.9-42.2,42.2
			v59.6v59.6C728.7,521.8,747.6,540.7,770.9,540.7z"/>
		<path d="M363.1,642.4h17.5c23.3,0,42.2-18.9,42.2-42.2v-59.6V481c0-23.3-18.9-42.2-42.2-42.2h-17.5c-23.3,0-42.2,18.9-42.2,42.2
			v59.6v59.6C320.9,623.6,339.8,642.4,363.1,642.4z"/>
		<path d="M626.2,702.2v-17.5c0-23.3-18.9-42.2-42.2-42.2h-59.6h-59.6c-23.3,0-42.2,18.9-42.2,42.2v17.5c0,23.3,18.9,42.2,42.2,42.2
			h59.6h59.6C607.4,744.4,626.2,725.5,626.2,702.2z"/>
		<path d="M626.2,295v-17.5c0-23.3-18.9-42.2-42.2-42.2h-59.6h-59.6c-23.3,0-42.2,18.9-42.2,42.2V295c0,23.3,18.9,42.2,42.2,42.2
			h59.6h59.6C607.4,337.2,626.2,318.3,626.2,295z"/>
		<path d="M728.7,295v-17.5c0-23.3-18.9-42.2-42.2-42.2H627h-59.6c-23.3,0-42.2,18.9-42.2,42.2V295c0,23.3,18.9,42.2,42.2,42.2H627
			h59.6C709.9,337.2,728.7,318.3,728.7,295z"/>
	</g>
	<path d="M779.4,642.6h-17.5c-23.3,0-42.2,18.9-42.2,42.2v17.5c0,23.3,18.9,42.2,42.2,42.2h17.5c23.3,0,42.2-18.9,42.2-42.2v-17.5
		C821.5,661.5,802.6,642.6,779.4,642.6z"/>
</g>
</svg>
