<?xml version="1.0" encoding="utf-8"?>
<!-- Generator: Adobe Illustrator 25.0.0, SVG Export Plug-In . SVG Version: 6.00 Build 0)  -->
<svg version="1.1" id="Layer_1" xmlns="http://www.w3.org/2000/svg" xmlns:xlink="http://www.w3.org/1999/xlink" x="0px" y="0px"
	 viewBox="0 0 1152 979" style="enable-background:new 0 0 1152 979;" xml:space="preserve">
<style type="text/css">
	.st0{fill:none;}
	.st1{display:none;}
</style>
<g>
	<path class="st0" d="M576,250.6c-3.8,0-6.9,3.1-6.9,6.9v210.8c0,3.8,3.1,6.9,6.9,6.9c3.8,0,6.9-3.1,6.9-6.9V257.5
		C582.9,253.7,579.8,250.6,576,250.6z"/>
	<path class="st1" d="M667.6,481.4c0.3-3.6,3.6-6.2,7.1-6.2H702c8.5,0,15.4-6.9,15.4-15.4V321.3c0-46.9-38-84.9-84.9-84.9H441.2
		v508.9h127.9V496.6c0-3.6,2.6-6.8,6.2-7.1c4.1-0.4,7.6,2.8,7.6,6.9v249l134.4,0.1v-241c0-8.5-6.9-15.4-15.4-15.4h-27.5
		C670.4,489,667.2,485.5,667.6,481.4z M582.9,468.3c0,4-3.5,7.2-7.6,6.9c-3.6-0.3-6.2-3.6-6.2-7.1V257.8c0-3.6,2.6-6.8,6.2-7.1
		c4.1-0.4,7.6,2.8,7.6,6.9V468.3z"/>
	<path d="M667.7,480.7c0.6-3.3,3.7-5.5,7-5.5l0,0c23.5,0,42.6-19.1,42.6-42.6V321.3c0-46.9-38-85.6-84.9-85.6H434.7v509.7h134.4
		V496.6c0-3.6,2.6-6.8,6.2-7.1c4.1-0.4,7.6,2.8,7.6,6.9v249l134.4,0.1V531.6c0-23.5-19.1-42.6-42.6-42.6h-0.3
		C670.2,489,666.8,485.1,667.7,480.7z M582.9,468.3c0,4-3.5,7.2-7.6,6.9c-3.6-0.3-6.2-3.6-6.2-7.1V257.8c0-3.6,2.6-6.8,6.2-7.1
		c4.1-0.4,7.6,2.8,7.6,6.9V468.3z"/>
</g>
</svg>
